# xmcd
#
# Track frame offsets: 
#        150
#        16259
#        42806
#        58474
#        72173
#        83919
#        102043
#        115016
#        129056
#        141423
#        153080
#        173358
#        184880
#        198534
#        214624
#        228816
#        250500
#        266525
#        276244
#        290759
#        312732
#        328842
#        343363
#
# Disc length: 4736 seconds
#
# Revision: 6
# Processed by: cddbd v1.5.2PL0 Copyright (c) Steve Scherf et al.
# Submitted via: ExactAudioCopyFreeDBPlugin 1.0
#
DISCID=51127e17
DTITLE=Willie Nelson - One Hell Of A Ride Disc 3
DYEAR=2008
DGENRE=Country
TTITLE0=Whiskey River (Live)
TTITLE1=Till I Gain Control Again (Live)
TTITLE2=Stay A Little Longer (Live)
TTITLE3=Heartbreak Hotel (With Leon Russell)
TTITLE4=One For My Baby (And One More For The Road) (With Leon Russell
TTITLE4=)
TTITLE5=Help Me Make It Through The Night
TTITLE6=Midnight Rider
TTITLE7=My Heroes Have Always Been Cowboys
TTITLE8=Crazy Arms (With Ray Price)
TTITLE9=On The Road Again
TTITLE10=Angel Flying Too Close To The Ground
TTITLE11=Mona Lisa
TTITLE12=I'm Gonna Sit Right Down And Write Myself A Letter
TTITLE13=Always On My Mind
TTITLE14=Old Friends (With Roger Miller And Ray Price)
TTITLE15=Pancho and Lefty (With Merle Haggard)
TTITLE16=Reasons To Quit (With Merle Haggard)
TTITLE17=In The Jailhouse Now (With Webb Pierce)
TTITLE18=Why Do I Have To Choose (With Waylon Jennings)
TTITLE19=City Of New Orleans
TTITLE20=To All The Girls I've Loved Before (With Julio Iglesias)
TTITLE21=Three Days (With Faron Young)
TTITLE22=Touch Me (With Faron Young)
EXTD=
EXTT0=
EXTT1=
EXTT2=
EXTT3=
EXTT4=
EXTT5=
EXTT6=
EXTT7=
EXTT8=
EXTT9=
EXTT10=
EXTT11=
EXTT12=
EXTT13=
EXTT14=
EXTT15=
EXTT16=
EXTT17=
EXTT18=
EXTT19=
EXTT20=
EXTT21=
EXTT22=
PLAYORDER=
